<?xml version="1.0" encoding="UTF-8" standalone="no"?>
<!-- Created with Inkscape (http://www.inkscape.org/) -->

<svg
   width="100mm"
   height="100mm"
   viewBox="0 0 100 100"
   version="1.1"
   id="svg1"
   inkscape:version="1.4.2 (f4327f4, 2025-05-13)"
   sodipodi:docname="666.svg"
   xmlns:inkscape="http://www.inkscape.org/namespaces/inkscape"
   xmlns:sodipodi="http://sodipodi.sourceforge.net/DTD/sodipodi-0.dtd"
   xmlns:xlink="http://www.w3.org/1999/xlink"
   xmlns="http://www.w3.org/2000/svg"
   xmlns:svg="http://www.w3.org/2000/svg">
  <sodipodi:namedview
     id="namedview1"
     pagecolor="#ffffff"
     bordercolor="#000000"
     borderopacity="0.25"
     inkscape:showpageshadow="2"
     inkscape:pageopacity="0.0"
     inkscape:pagecheckerboard="0"
     inkscape:deskcolor="#d1d1d1"
     inkscape:document-units="mm"
     inkscape:zoom="1.41"
     inkscape:cx="191.48936"
     inkscape:cy="196.80851"
     inkscape:window-width="1920"
     inkscape:window-height="974"
     inkscape:window-x="-11"
     inkscape:window-y="-11"
     inkscape:window-maximized="1"
     inkscape:current-layer="layer1" />
  <defs
     id="defs1">
    <linearGradient
       id="linearGradient112"
       inkscape:collect="always">
      <stop
         style="stop-color:#000000;stop-opacity:1;"
         offset="0"
         id="stop111" />
      <stop
         style="stop-color:#685d47;stop-opacity:0;"
         offset="1"
         id="stop112" />
    </linearGradient>
    <linearGradient
       id="linearGradient110"
       inkscape:collect="always">
      <stop
         style="stop-color:#000000;stop-opacity:1;"
         offset="0"
         id="stop109" />
      <stop
         style="stop-color:#d2a46e;stop-opacity:0;"
         offset="1"
         id="stop110" />
    </linearGradient>
    <linearGradient
       id="linearGradient104"
       inkscape:collect="always">
      <stop
         style="stop-color:#000000;stop-opacity:1;"
         offset="0"
         id="stop104" />
      <stop
         style="stop-color:#000000;stop-opacity:0;"
         offset="1"
         id="stop105" />
    </linearGradient>
    <linearGradient
       id="linearGradient102"
       inkscape:collect="always">
      <stop
         style="stop-color:#000000;stop-opacity:1;"
         offset="0"
         id="stop101" />
      <stop
         style="stop-color:#6967dc;stop-opacity:0;"
         offset="1"
         id="stop102" />
    </linearGradient>
    <linearGradient
       id="linearGradient100"
       inkscape:collect="always">
      <stop
         style="stop-color:#000000;stop-opacity:1;"
         offset="0"
         id="stop99" />
      <stop
         style="stop-color:#676ed2;stop-opacity:0;"
         offset="1"
         id="stop100" />
    </linearGradient>
    <linearGradient
       id="linearGradient88"
       inkscape:collect="always">
      <stop
         style="stop-color:#000000;stop-opacity:1;"
         offset="0"
         id="stop88" />
      <stop
         style="stop-color:#000000;stop-opacity:0;"
         offset="1"
         id="stop89" />
    </linearGradient>
    <linearGradient
       inkscape:collect="always"
       xlink:href="#linearGradient88"
       id="linearGradient89"
       x1="71.524156"
       y1="75.997337"
       x2="71.838728"
       y2="75.997337"
       gradientUnits="userSpaceOnUse" />
    <linearGradient
       inkscape:collect="always"
       xlink:href="#linearGradient88"
       id="linearGradient91"
       x1="33.917761"
       y1="55.712792"
       x2="55.067594"
       y2="55.712792"
       gradientUnits="userSpaceOnUse"
       gradientTransform="translate(-0.37529551,0.93823877)" />
    <linearGradient
       inkscape:collect="always"
       xlink:href="#linearGradient88"
       id="linearGradient96"
       x1="73.602694"
       y1="68.004379"
       x2="90.785763"
       y2="68.004379"
       gradientUnits="userSpaceOnUse" />
    <linearGradient
       inkscape:collect="always"
       xlink:href="#linearGradient88"
       id="linearGradient97"
       x1="8.3914946"
       y1="38.329546"
       x2="21.337943"
       y2="38.329546"
       gradientUnits="userSpaceOnUse" />
    <linearGradient
       inkscape:collect="always"
       xlink:href="#linearGradient102"
       id="linearGradient98"
       x1="20.708524"
       y1="33.963613"
       x2="35.288606"
       y2="33.963613"
       gradientUnits="userSpaceOnUse" />
    <linearGradient
       inkscape:collect="always"
       xlink:href="#linearGradient100"
       id="linearGradient99"
       x1="18.463462"
       y1="47.475718"
       x2="47.257873"
       y2="47.475718"
       gradientUnits="userSpaceOnUse" />
    <linearGradient
       inkscape:collect="always"
       xlink:href="#linearGradient104"
       id="linearGradient105"
       x1="41.345817"
       y1="54.848569"
       x2="43.246798"
       y2="54.848569"
       gradientUnits="userSpaceOnUse" />
    <linearGradient
       inkscape:collect="always"
       xlink:href="#linearGradient104"
       id="linearGradient106"
       x1="60.301207"
       y1="52.835396"
       x2="62.045239"
       y2="52.835396"
       gradientUnits="userSpaceOnUse" />
    <linearGradient
       inkscape:collect="always"
       xlink:href="#linearGradient104"
       id="linearGradient107"
       x1="66.702469"
       y1="58.448932"
       x2="76.921614"
       y2="58.448932"
       gradientUnits="userSpaceOnUse" />
    <linearGradient
       inkscape:collect="always"
       xlink:href="#linearGradient112"
       id="linearGradient108"
       x1="81.873315"
       y1="56.933491"
       x2="91.613669"
       y2="56.933491"
       gradientUnits="userSpaceOnUse" />
    <linearGradient
       inkscape:collect="always"
       xlink:href="#linearGradient110"
       id="linearGradient109"
       x1="59.816004"
       y1="61.717203"
       x2="90.751738"
       y2="61.717203"
       gradientUnits="userSpaceOnUse" />
  </defs>
  <g
     inkscape:label="图层 1"
     inkscape:groupmode="layer"
     id="layer1">
    <circle
       id="path2"
       style="fill:url(#linearGradient89);stroke:#000000;stroke-width:0.264583;fill-opacity:1"
       cx="71.681442"
       cy="75.997337"
       r="0.024994498" />
    <path
       style="fill:url(#linearGradient105);stroke-width:0.264583;fill-opacity:1"
       id="path3"
       d="m 41.569977,41.326676 c 0.02118,2.297104 -0.03145,4.594735 -0.05366,6.891924 -0.02128,2.767402 -0.02748,5.53488 -0.0385,8.302332 -0.0071,2.138542 -0.02913,4.276941 -0.05371,6.415341 -0.02228,1.183135 -0.02555,2.366515 -0.04324,3.549703 -0.0065,0.331134 -0.01829,0.66213 -0.03505,0.992894 0,0 1.749856,0.891593 1.749856,0.891593 v 0 c -0.01651,-0.342705 -0.02849,-0.685612 -0.03512,-1.028661 -0.0178,-1.198078 -0.02154,-2.396344 -0.04435,-3.594367 -0.02553,-2.156632 -0.04908,-4.313266 -0.05411,-6.470068 -0.0064,-2.767957 -0.007,-5.536102 0.03108,-8.303858 0.03681,-2.265185 0.07551,-4.53313 0.253625,-6.792446 z" />
    <path
       style="fill:url(#linearGradient91);stroke-width:0.264583"
       id="path4"
       d="m 44.879963,42.420015 c 0.919858,-0.02744 1.840437,-0.02776 2.760654,-0.02702 0.985019,0.02446 1.962221,0.165802 2.895318,0.483665 0.372388,0.151529 0.361167,0.141259 0.72331,0.311172 0.118131,0.05543 0.464346,0.237533 0.352327,0.170613 -2.504596,-1.496202 -1.18732,-0.680655 -0.659773,-0.266167 0.456798,0.412332 0.923219,0.876919 1.084281,1.491222 0.05166,0.197025 0.07477,0.400449 0.112152,0.600675 0.146756,1.258264 -0.0071,2.514428 -0.418082,3.707392 -0.430395,0.953336 -1.204526,1.710021 -1.918893,2.456879 -1.385012,1.349999 -2.812938,2.655281 -4.244475,3.955568 -0.95122,0.869035 -1.919626,1.719212 -2.903904,2.550488 -0.237303,0.177729 -0.456122,0.388649 -0.714359,0.537739 1.592869,1.171411 1.128661,1.11986 2.202799,1.102871 0.79631,-0.01606 1.5928,-0.02177 2.389248,-0.02601 1.083795,-8e-5 2.166395,-0.03627 3.244839,0.08512 0.936503,0.126971 1.837253,0.369059 2.71196,0.721791 0.223473,0.114261 0.455462,0.21104 0.679733,0.323631 0.09671,0.04855 0.380016,0.207158 0.286486,0.152722 -2.569223,-1.49525 -1.486763,-0.902843 -0.960834,-0.491315 0.34754,0.300686 0.452043,0.694555 0.461089,1.138142 -0.06879,0.880301 -0.701889,1.503971 -1.276792,2.110285 -1.238827,1.229717 -2.58435,2.341354 -4.011993,3.343378 -1.686604,1.199854 -3.552693,2.075921 -5.48251,2.800824 -1.708657,0.637196 -3.485435,1.003924 -5.293263,1.198142 -1.001988,0.09742 -2.004816,0.134887 -3.003223,-0.0046 -0.258118,-0.04676 -0.140445,-0.02228 -0.353593,-0.07062 0,0 1.568517,1.182796 1.568517,1.182796 v 0 c 0.200849,0.02606 0.08994,0.01281 0.332909,0.03827 0.978636,0.07503 1.956916,0.0159 2.930849,-0.100073 1.79805,-0.230913 3.562171,-0.631428 5.262414,-1.272191 1.939292,-0.739804 3.811406,-1.630619 5.513199,-2.832597 1.447532,-1.009809 2.820259,-2.118562 4.114399,-3.319688 0.622933,-0.626837 1.30057,-1.272138 1.424697,-2.192356 0.01857,-0.480264 -0.04713,-0.931555 -0.391541,-1.294082 -0.940864,-0.848138 -2.147001,-1.357635 -3.291078,-1.88077 -0.879266,-0.332203 -1.788144,-0.550497 -2.72219,-0.66571 -1.082165,-0.10079 -2.167472,-0.05952 -3.253152,-0.06754 -0.819707,-0.0046 -1.639383,-0.01278 -2.459045,-0.02236 -0.03146,1.08e-4 -0.339242,0.0011 -0.381142,0.0019 -0.04429,7.94e-4 -0.167354,-0.02289 -0.132798,0.0048 2.604807,2.089044 1.085541,1.567011 1.571955,1.100696 0.216519,-0.199395 0.432528,-0.399349 0.645848,-0.602176 0.925498,-0.879824 1.865945,-1.743387 2.791941,-2.622918 1.416752,-1.326126 2.846155,-2.638012 4.286563,-3.938513 0.771088,-0.742979 1.61168,-1.482746 2.020273,-2.497786 0.380741,-1.230122 0.518523,-2.510898 0.431105,-3.797479 -0.02609,-0.24329 -0.06406,-0.798195 -0.162412,-1.05749 -0.03736,-0.0985 -0.113909,-0.177299 -0.173866,-0.263921 -0.220252,-0.318208 -0.462465,-0.61949 -0.753853,-0.876391 -1.092224,-0.900678 -2.350649,-1.600065 -3.679234,-2.085726 -0.942835,-0.279723 -1.92022,-0.403149 -2.903465,-0.417289 -0.94502,7.68e-4 -1.890346,-3.96e-4 -2.835039,-0.02702 z" />
    <path
       style="fill:url(#linearGradient106);stroke-width:0.264583;fill-opacity:1"
       id="path5"
       d="m 60.307207,43.880452 c 0.07239,1.524312 0.07612,3.051246 0.08766,4.576989 0.01257,2.1159 0.007,4.231855 0.0016,6.34777 -0.0067,1.624663 -0.01429,3.249305 -0.04748,4.873675 -0.01,0.407826 -0.02553,0.815491 -0.04778,1.222825 0,0 1.744032,0.888629 1.744032,0.888629 v 0 c -0.02191,-0.42359 -0.03764,-0.847471 -0.04778,-1.271513 -0.03283,-1.640504 -0.04091,-3.281267 -0.04748,-4.922057 -0.0055,-2.115391 -0.01106,-4.230822 0.0016,-6.3462 0.0114,-1.495949 0.0141,-2.993224 0.08766,-4.487662 z" />
    <path
       style="fill:url(#linearGradient107);stroke-width:0.264583;fill-opacity:1"
       id="path6"
       d="m 66.702469,56.251188 c 0.1152,0.913453 0.473051,1.651674 0.992529,2.397702 0.907198,1.205103 1.80585,1.652788 3.251306,2.376897 0.185052,0.0927 0.397047,0.117076 0.595569,0.175612 1.148747,0.271764 2.397731,0.384114 3.509674,-0.09845 0.184285,-0.07998 0.352872,-0.192117 0.529309,-0.288177 0.939747,-0.718182 1.222328,-1.473612 1.340758,-2.609392 -0.01992,-0.342852 0.0021,-0.454139 -0.124823,-0.773782 -0.07568,-0.190457 -0.248801,-0.48388 -0.428595,-0.599329 -1.79369,-1.151747 -1.291117,-0.978572 -2.41748,-1.26693 -1.33799,-0.230643 -2.70892,-0.03166 -4.033885,0.19776 -0.852887,0.1764 -1.700821,0.375846 -2.544842,0.590449 0,0 1.59172,1.089258 1.59172,1.089258 v 0 c 0.798518,-0.262054 1.610456,-0.484796 2.437358,-0.638411 1.330542,-0.21373 2.709024,-0.405386 4.038676,-0.08783 0.766342,0.275836 1.048698,0.409962 -0.837437,-0.6096 -0.1039,-0.05616 0.194378,0.137409 0.274021,0.224624 0.253671,0.277778 0.345479,0.636373 0.368596,1.000884 -0.07496,1.056878 -0.333042,1.810882 -1.216134,2.46875 -0.165687,0.09002 -0.323257,0.19694 -0.497064,0.270069 -1.09773,0.461875 -2.33067,0.304167 -3.444923,0.0011 -0.903647,-0.322654 -1.082252,-0.433919 0.569299,0.508936 0.09772,0.05579 -0.179761,-0.135509 -0.266957,-0.206639 -0.35691,-0.291148 -0.700336,-0.601173 -0.969904,-0.977964 -0.503264,-0.688009 -0.919226,-1.406506 -0.970436,-2.280001 z" />
    <path
       style="fill:url(#linearGradient108);stroke-width:0.264583;fill-opacity:1"
       id="path13"
       d="m 87.371356,53.846586 c -0.788418,0.03451 -1.578374,-0.01397 -2.365716,0.03864 -0.619752,0.07508 -1.2148,0.269282 -1.763257,0.564277 -0.46269,0.246298 -0.796431,0.589118 -1.044708,1.047797 -0.204366,0.5041 -0.272542,1.048512 -0.308104,1.587445 -0.01672,0.354203 -0.01812,0.708784 -0.01482,1.063281 -0.04755,1.106111 1.200251,1.55557 2.193608,1.818537 0.553251,0.105079 1.118602,0.03422 1.673127,-0.02596 1.238062,-0.682403 2.458275,-1.396111 3.684008,-2.100231 0.666374,-0.392316 1.328163,-0.794856 2.032113,-1.117251 0.115904,-0.04904 0.06367,-0.02851 0.156062,-0.06314 0,0 -1.655355,-1.094071 -1.655355,-1.094071 v 0 c -0.0829,0.0485 -0.03598,0.02095 -0.140713,0.08273 -0.647639,0.387358 -1.276602,0.80368 -1.916682,1.203166 -1.207486,0.723514 -2.414349,1.495698 -3.748566,1.963343 -0.538689,0.07304 -1.092689,0.125003 -1.619438,-0.04606 -0.701892,-0.317426 -0.392924,-0.18659 1.304237,0.813448 0.04378,0.0258 -0.08986,-0.05191 -0.12229,-0.09103 -0.102346,-0.123476 -0.09241,-0.307591 -0.09304,-0.45507 -0.0024,-0.353309 -0.01352,-0.706604 -0.0043,-1.059894 0.0195,-0.513858 0.05705,-1.036572 0.256442,-1.516957 0.233535,-0.425569 0.563531,-0.720947 0.993659,-0.94623 0.527185,-0.274963 1.086934,-0.473477 1.684967,-0.517998 0.796184,-0.04013 1.594538,-0.01984 2.391291,-0.0062 z" />
    <path
       style="fill:url(#linearGradient109);stroke-width:0.264583;fill-opacity:1"
       id="path14"
       d="m 89.01481,53.614414 c 0.0328,0.842716 0.02826,1.686345 0.03131,2.529546 0.06994,1.44539 -0.326798,2.825636 -0.755767,4.189828 -0.431133,1.048647 -0.831741,2.206598 -1.642088,3.039083 -0.458399,0.470924 -0.826553,0.668089 -1.375394,1.028917 -1.605492,0.947561 -3.379346,1.536121 -5.15882,2.05839 -2.377667,0.756796 -4.831511,1.208923 -7.279915,1.66375 -1.757574,0.337579 -3.539588,0.490921 -5.325369,0.560901 -1.168554,0.03048 -2.337684,0.02281 -3.506481,0.01508 -0.949737,-0.0048 -1.899478,-0.0085 -2.849221,-0.01275 -0.44577,-0.0016 -0.891495,-0.0098 -1.337061,-0.02315 0,0 1.590961,1.155983 1.590961,1.155983 v 0 c 0.42509,-0.0136 0.850381,-0.02061 1.275696,-0.02119 0.94451,-0.0016 1.889017,-5.29e-4 2.833526,0.0016 1.155631,-0.0016 2.311734,-5.29e-4 3.466412,-0.05491 1.763557,-0.08981 3.519115,-0.285832 5.249849,-0.645676 2.452693,-0.487074 4.911675,-0.956706 7.313814,-1.662012 1.789943,-0.556741 3.635145,-1.038108 5.218821,-2.078735 0.560311,-0.364469 0.963393,-0.580771 1.432134,-1.061099 0.794356,-0.81399 1.18645,-2.102318 1.61748,-3.127163 0.295077,-0.908759 0.352248,-1.050541 0.604989,-1.962483 0.117247,-0.423051 0.271714,-0.962216 0.314872,-1.415333 0.02516,-0.264166 -0.05194,-0.531919 -0.01413,-0.795965 0.003,-0.832559 -0.0019,-1.665581 0.03131,-2.497643 z" />
    <text
       xml:space="preserve"
       style="font-style:normal;font-variant:normal;font-weight:normal;font-stretch:normal;font-size:5.92939px;font-family:'Freestyle Script';-inkscape-font-specification:'Freestyle Script';text-align:start;writing-mode:lr-tb;direction:ltr;text-anchor:start;fill:url(#linearGradient96);stroke-width:0.494115;fill-opacity:1"
       x="74.022499"
       y="69.476593"
       id="text14"
       transform="scale(0.95044711,1.0521364)"><tspan
         sodipodi:role="line"
         id="tspan14"
         style="font-style:normal;font-variant:normal;font-weight:normal;font-stretch:normal;font-family:'Freestyle Script';-inkscape-font-specification:'Freestyle Script';fill:url(#linearGradient96);stroke-width:0.494115;fill-opacity:1"
         x="74.022499"
         y="69.476593">2025.9.27</tspan></text>
    <path
       style="fill:url(#linearGradient97);stroke-width:0.264583;fill-opacity:1"
       id="path15"
       d="m 19.736264,22.409316 c -1.072649,2.33324 -2.257358,4.611842 -3.427519,6.896945 -0.945955,1.7971 -1.71998,3.673049 -2.500369,5.545203 -0.172647,0.414182 -0.370544,0.818412 -0.522657,1.240568 -0.201223,0.558448 -0.357488,1.132091 -0.536231,1.698138 -0.749829,2.547901 -1.578133,5.072772 -2.272718,7.636645 -0.306238,1.130395 -0.669637,2.568834 -0.961168,3.709773 -0.365459,1.417767 -0.741251,2.832836 -1.1241074,4.245994 0,0 1.6150714,0.867193 1.6150714,0.867193 v 0 c 0.247698,-1.468459 0.528039,-2.931335 0.859175,-4.383514 0.380623,-1.592418 0.491872,-2.118746 0.934951,-3.717861 0.17468,-0.630433 0.369217,-1.255213 0.548432,-1.884371 0.546727,-1.919364 1.071655,-3.846337 1.763614,-5.720783 1.087461,-2.857598 2.169328,-5.724525 3.617766,-8.424947 1.184932,-2.272186 2.325115,-4.570926 3.607439,-6.790047 z" />
    <path
       style="fill:url(#linearGradient98);stroke-width:0.264583;fill-opacity:1"
       id="path16"
       d="m 20.708524,20.752335 c 0.0451,1.102955 0.05302,2.207345 0.06499,3.311094 0.01959,2.025427 0.03469,4.050905 0.04637,6.076399 0.02477,2.541135 0.01634,5.082341 0.001,7.62349 -0.03005,1.842899 0.160043,3.67512 0.451053,5.491837 0.175247,0.855588 0.23922,1.728925 0.39789,2.586664 0.165105,0.769903 1.466161,1.828787 1.975756,1.073872 0.236332,-0.350101 0.322478,-0.850254 0.432391,-1.245084 0.332392,-1.771935 0.684548,-3.53828 1.107043,-5.291553 0.565461,-2.162484 1.177231,-4.31257 1.831152,-6.449919 0.51909,-1.647944 1.080705,-3.309686 1.980291,-4.793404 0.359585,-0.504954 0.871588,-1.245213 1.597261,-1.188341 0.103798,0.0081 0.199879,0.0584 0.299818,0.0876 1.018447,0.57504 -0.762826,-0.435872 -1.001797,-0.501198 -0.1576,-0.04308 0.205396,0.25554 0.288758,0.396052 0.342998,0.578144 0.517699,1.253414 0.720241,1.887315 0.626538,1.951281 0.966737,3.978924 1.323276,5.992636 0.355015,1.927754 0.618263,3.870465 0.976979,5.797428 0.115705,0.619077 0.232662,1.237919 0.349811,1.856727 0,0 1.737799,0.835649 1.737799,0.835649 v 0 C 35.113251,43.66761 34.952911,43.031517 34.814375,42.390345 34.416918,40.45727 34.120381,38.506105 33.770147,36.564206 33.425059,34.56062 33.101196,32.544826 32.533355,30.589539 32.350869,29.948644 32.19223,29.286191 31.89808,28.683915 31.8245,28.533261 31.780605,28.349489 31.647151,28.247998 c -1.321345,-1.00489 -1.34617,-0.990542 -2.284883,-1.368526 -0.113871,-0.01 -0.227669,-0.03905 -0.341617,-0.02997 -0.761158,0.06063 -1.248584,0.791837 -1.613895,1.368343 -0.845395,1.535144 -1.398322,3.210451 -1.906363,4.882451 -0.631509,2.146406 -1.258795,4.294293 -1.841113,6.45464 -0.431256,1.734592 -0.815582,3.479527 -1.214169,5.221335 -0.109009,0.322077 -0.183296,0.585115 -0.332453,0.885095 -0.03489,0.07017 -0.0711,0.142229 -0.125024,0.199086 -0.01256,0.01323 -0.06908,-0.02045 -0.0537,-0.01064 0.519049,0.331409 1.030999,0.675532 1.56778,0.977376 0.04935,0.02775 -0.05867,-0.09684 -0.08801,-0.145264 -0.231575,-0.862761 -0.287989,-1.761598 -0.506583,-2.62854 -0.337583,-1.821064 -0.579853,-3.660619 -0.569101,-5.517039 -0.0152,-2.540796 -0.02383,-5.081648 0.001,-7.622428 0.01165,-2.009744 0.02674,-4.019471 0.04637,-6.029148 0.01186,-1.081667 0.01929,-2.164039 0.06499,-3.244868 z" />
    <path
       style="fill:url(#linearGradient99);stroke-width:0.264583;fill-opacity:1"
       id="path17"
       d="m 39.325517,34.458108 c 0.207544,1.507826 0.323347,3.026648 0.619955,4.520779 0.157877,0.553175 0.327462,1.178047 0.872395,1.47873 1.933154,1.066678 1.254419,0.99223 2.291326,1.03844 0.133279,-0.08109 0.279133,-0.144429 0.399836,-0.243272 0.890458,-0.729183 1.671188,-2.151962 2.185032,-3.168126 0.635627,-1.352219 1.057378,-2.787494 1.385433,-4.241001 0.121449,-0.191555 0.07184,-0.722844 0.178379,-0.922128 -0.588521,-0.232796 -1.151718,-0.544285 -1.765565,-0.698386 -0.08271,-0.02077 0.0016,0.170547 0.0026,0.255817 0.0026,0.211855 -0.0051,0.423852 0.0019,0.635612 0.01717,0.528783 0.04741,1.057087 0.06489,1.585862 0.01355,1.649052 0.02408,3.299174 -0.104949,4.944742 -0.07964,1.015717 -0.178194,1.678638 -0.308536,2.684759 -0.257482,2.050423 -0.73405,4.003445 -1.557213,5.898351 -1.10557,2.318581 -2.729116,4.335856 -4.32462,6.330256 -1.400236,1.647683 -2.973147,3.138988 -4.705718,4.432671 -0.804661,0.600826 -1.253863,0.877374 -2.067504,1.407697 -0.375634,0.185084 -0.738899,0.397737 -1.1269,0.555252 -1.814494,0.73661 -3.993473,1.135226 -5.949858,1.009004 -0.483027,-0.03116 -0.958752,-0.133927 -1.438128,-0.20089 -0.619925,-0.20252 -1.901182,-0.521745 -2.386042,-1.059153 -0.120259,-0.133295 0.567557,0.194516 0.538295,0.01738 -0.06532,-0.395407 -0.497338,-0.632132 -0.69724,-0.979485 -0.504111,-0.875951 -0.591229,-1.386322 -0.874524,-2.349707 -0.263989,-1.0845 -0.381328,-2.192988 -0.429176,-3.30523 0,0 -1.666123,-0.832408 -1.666123,-0.832408 v 0 c 0.130536,1.148627 0.304828,2.292588 0.578489,3.417062 0.113971,0.413533 0.200427,0.835654 0.341912,1.240599 0.19787,0.566322 0.706748,1.745226 1.180027,2.167372 0.499974,0.445957 2.443226,1.870559 3.442082,2.280581 0.413217,0.169622 0.856238,0.254823 1.284357,0.382233 0.47849,0.05674 0.954144,0.147918 1.43547,0.170209 1.951377,0.09037 4.222301,-0.326327 6.042361,-1.032198 0.4044,-0.156837 0.784805,-0.369636 1.177206,-0.554455 1.085429,-0.799203 2.183791,-1.594369 3.211652,-2.467563 1.251869,-1.063495 2.39685,-2.245619 3.483147,-3.475651 0.523254,-0.622819 1.426335,-1.680043 1.929403,-2.344473 0.253031,-0.33419 0.483076,-0.685178 0.725046,-1.027464 0.664281,-0.939687 1.349269,-1.870784 1.875745,-2.898413 0.19337,-0.507619 0.413324,-1.061889 0.570187,-1.579398 0.437192,-1.442347 0.687792,-2.935843 0.882521,-4.427244 0.309779,-2.5215 0.509656,-5.058878 0.515617,-7.600725 0.02217,-0.61005 0.06006,-1.219486 0.07105,-1.829506 0.0019,-0.10468 0.0063,-0.209302 0.0099,-0.313934 0.0029,-0.08261 0.07539,-0.197662 0.0097,-0.247806 -0.547328,-0.417594 -1.1714,-0.723622 -1.757101,-1.085432 0.06741,0.286012 -0.04717,0.635111 -0.0539,0.930299 -0.223568,1.466501 -0.608878,2.908318 -1.270807,4.242668 -0.514207,0.954807 -1.281409,2.418921 -2.219508,3.011881 -0.110371,0.06976 -0.244083,0.09284 -0.366125,0.139256 -0.811191,-0.105333 -0.301858,-0.08002 1.031126,0.800063 0.103717,0.06848 -0.226922,-0.106471 -0.32485,-0.182994 C 41.891911,40.674625 41.75438,40.206969 41.601946,39.778 41.247354,38.316362 41.084603,36.816823 41.032769,35.314524 Z" />
  </g>
</svg>
