<?xml version="1.0" encoding="UTF-8" standalone="no"?>
<!-- Created with Inkscape (http://www.inkscape.org/) -->

<svg
   width="90.0mm"
   height="54.0mm"
   viewBox="0 0 90.0 54.0"
   id="SVGRoot"
   version="1.1"
   xml:space="preserve"
   inkscape:version="1.4.2 (f4327f4, 2025-05-13)"
   sodipodi:docname="hi.svg"
   xmlns:inkscape="http://www.inkscape.org/namespaces/inkscape"
   xmlns:sodipodi="http://sodipodi.sourceforge.net/DTD/sodipodi-0.dtd"
   xmlns="http://www.w3.org/2000/svg"
   xmlns:svg="http://www.w3.org/2000/svg"><sodipodi:namedview
     inkscape:document-units="mm"
     inkscape:zoom="1.87"
     inkscape:cx="155.08021"
     inkscape:cy="99.73262"
     id="namedview1"
     pagecolor="#ffffff"
     bordercolor="#000000"
     borderopacity="0.25"
     inkscape:showpageshadow="2"
     inkscape:pageopacity="0.0"
     inkscape:pagecheckerboard="0"
     inkscape:deskcolor="#d1d1d1"
     inkscape:window-width="1920"
     inkscape:window-height="974"
     inkscape:window-x="-11"
     inkscape:window-y="-11"
     inkscape:window-maximized="1"
     inkscape:current-layer="layer1" /><defs
     id="defs1"><rect
       x="41.71123"
       y="5.3475936"
       width="197.86096"
       height="34.224599"
       id="rect2" /></defs><g
     inkscape:label="图层 1"
     inkscape:groupmode="layer"
     id="layer1"><path
       id="text2"
       style="font-style:normal;font-variant:normal;font-weight:normal;font-stretch:normal;font-size:65.7922px;font-family:STSong;-inkscape-font-specification:STSong;text-align:start;writing-mode:lr-tb;direction:ltr;text-anchor:start;fill:#000000;fill-opacity:1;stroke-width:54.7696"
       d="m 56.587608,6.1068553 c -1.523886,0.1976555 -3.132595,0.3083525 -4.825801,0.3320715 -5.545251,0.07768 -9.122091,0.03912 -10.730638,-0.114651 v 1.057995 l 3.365287,0.349894 c 0.507961,0.03696 0.86782,0.252 1.079472,0.645728 0.21165,0.349651 0.317389,0.965347 0.317389,1.8468882 V 26.092337 L 22.998396,26.411934 V 10.610316 c 0,-0.8374632 0.08485,-1.4118212 0.254173,-1.7227332 0.169321,-0.31091 0.529181,-0.514221 1.079473,-0.610084 l 4.825365,-0.728895 v -1.057995 c -1.523886,0.197656 -3.195689,0.309544 -5.015886,0.335042 -5.629911,0.07887 -9.24896,0.0415 -10.857506,-0.112274 v 1.057995 l 3.36485,0.349299 c 0.507962,0.03696 0.867822,0.252593 1.079473,0.646321 0.21165,0.349652 0.317825,0.964755 0.317825,1.8462952 v 33.058052 c 0,0.925617 -0.106175,1.588019 -0.317825,1.987677 -0.211651,0.399657 -0.655927,0.670341 -1.33321,0.81206 l -4.889017,0.994432 v 1.057402 c 2.116508,-0.205957 5.354376,-0.33931 9.714382,-0.400386 2.455149,-0.03439 4.8049,0.02086 7.048398,0.165738 V 47.230266 L 24.332042,46.62434 C 23.78175,46.5439 23.42189,46.3064 23.252569,45.912079 23.083249,45.473681 22.998396,44.703761 22.998396,43.601835 V 28.328919 l 22.794921,-0.319002 v 15.272915 c 0,1.057849 -0.08442,1.808292 -0.253737,2.251434 -0.16932,0.443142 -0.508294,0.712038 -1.016255,0.807308 l -3.936414,0.716419 v 1.057996 c 2.243499,-0.207736 4.592813,-0.329163 7.047962,-0.363556 4.360007,-0.06108 7.59831,-0.01835 9.714818,0.128314 V 46.823345 L 52.460238,45.966137 C 51.698295,45.84458 51.211811,45.587011 51.00016,45.193283 50.830839,44.798961 50.745987,44.138946 50.745987,43.21333 V 10.221811 c 0,-0.8374642 0.08485,-1.4118222 0.254173,-1.7227332 0.169321,-0.310911 0.528745,-0.514222 1.079037,-0.610085 l 4.508411,-0.724735 z m 11.365416,12.6668377 -1.01582,0.01426 c -1.396896,2.399727 -3.597827,4.017272 -6.603269,4.852759 v 0.925525 c 1.523885,0.331268 2.5395,0.735903 3.047461,1.213634 0.507963,0.477733 0.762084,1.245862 0.762084,2.30371 v 15.536672 c 0,1.322311 -0.656189,2.125418 -1.968425,2.408262 l -3.555807,0.777012 v 1.057401 c 1.312235,-0.194691 3.640663,-0.314929 6.984746,-0.361774 3.344083,-0.04685 5.672075,0.0084 6.98431,0.166333 v -1.057996 l -3.237982,-0.747903 c -0.550292,-0.124523 -0.931475,-0.33956 -1.143125,-0.645134 -0.169321,-0.306167 -0.254173,-0.789504 -0.254173,-1.45066 z" /><text
       xml:space="preserve"
       style="font-style:normal;font-variant:normal;font-weight:normal;font-stretch:normal;font-size:14.1586px;font-family:Stencil;-inkscape-font-specification:Stencil;text-align:start;writing-mode:lr-tb;direction:ltr;text-anchor:start;fill:#000000;fill-opacity:1;stroke-width:0.530946"
       x="45.504154"
       y="16.859859"
       id="text4"
       transform="matrix(1.297091,0.07614894,-0.04510542,0.76830791,0,0)"><tspan
         sodipodi:role="line"
         id="tspan4"
         style="font-style:normal;font-variant:normal;font-weight:normal;font-stretch:normal;font-family:Stencil;-inkscape-font-specification:Stencil;stroke-width:0.530946"
         x="45.504154"
         y="16.859859">:)</tspan></text><text
       xml:space="preserve"
       style="font-style:normal;font-variant:normal;font-weight:normal;font-stretch:normal;font-size:4.6645px;font-family:Stencil;-inkscape-font-specification:Stencil;text-align:start;writing-mode:lr-tb;direction:ltr;text-anchor:start;fill:#000000;fill-opacity:0.80902779;stroke-width:0.174918"
       x="76.57206"
       y="43.788158"
       id="text5"
       transform="scale(0.91802959,1.0892895)"><tspan
         sodipodi:role="line"
         id="tspan5"
         style="stroke-width:0.174918;fill:#000000;fill-opacity:0.80902779"
         x="76.57206"
         y="43.788158">`2025</tspan></text></g></svg>
